<?xml version="1.0" standalone="no"?>
<!DOCTYPE svg PUBLIC "-//W3C//DTD SVG 20010904//EN"
 "http://www.w3.org/TR/2001/REC-SVG-20010904/DTD/svg10.dtd">
<svg version="1.0" xmlns="http://www.w3.org/2000/svg"
 width="256.000000pt" height="256.000000pt" viewBox="0 0 256.000000 256.000000"
 preserveAspectRatio="xMidYMid meet">
<metadata>
Created by potrace 1.11, written by Peter Selinger 2001-2013
</metadata>
<g transform="translate(0.000000,256.000000) scale(0.100000,-0.100000)"
fill="#000000" stroke="none">
<path d="M1115 2511 c-6 -5 -19 -12 -30 -15 -11 -3 -5 -4 13 -2 47 4 39 -10
-9 -17 -23 -3 -46 -10 -51 -15 -16 -16 41 -40 97 -40 28 0 66 -7 85 -15 19 -8
69 -18 110 -22 46 -4 82 -13 93 -22 9 -9 27 -21 39 -27 12 -6 32 -27 45 -46
12 -19 36 -53 53 -75 17 -22 49 -63 71 -92 l40 -52 29 17 c17 9 30 24 31 32 5
60 0 56 83 84 26 9 52 13 57 10 11 -7 -13 -33 -26 -28 -5 2 -23 0 -40 -4 -25
-7 -30 -14 -32 -43 -1 -33 9 -49 36 -49 9 0 11 7 7 25 -5 18 -2 25 8 25 8 0
20 8 25 18 9 15 12 15 21 2 6 -8 13 -27 17 -43 4 -22 10 -26 25 -21 32 10 84
-38 92 -84 3 -22 13 -45 21 -52 19 -16 19 -30 0 -30 -8 0 -15 -4 -15 -10 0 -8
-45 -21 -90 -25 -26 -3 -61 -17 -58 -24 2 -3 12 -23 23 -43 21 -43 37 -50 35
-15 -4 45 -1 48 38 45 20 -2 36 -8 35 -14 -1 -6 9 -16 22 -22 16 -7 25 -8 25
-2 0 15 27 12 33 -4 3 -8 1 -31 -5 -52 -8 -32 -7 -40 8 -51 12 -9 15 -16 7
-24 -7 -7 -23 1 -53 26 l-43 36 -20 -32 c-17 -25 -18 -35 -9 -50 11 -17 9 -19
-15 -19 -16 1 -47 -1 -70 -3 -35 -3 -44 -1 -48 14 -4 11 -11 19 -18 19 -6 0
-21 10 -34 21 -20 20 -23 20 -29 6 -3 -9 -1 -31 5 -48 16 -45 14 -104 -4 -119
-8 -7 -20 -30 -25 -51 -11 -40 -26 -48 -49 -26 -10 10 -15 8 -27 -7 -8 -11
-14 -31 -14 -45 0 -14 -7 -35 -15 -45 -8 -11 -15 -30 -15 -43 0 -13 -4 -24
-10 -24 -5 -1 -13 -2 -17 -3 -5 0 -24 -12 -43 -26 -31 -21 -52 -40 -130 -110
-23 -21 -47 -35 -105 -63 -27 -14 -74 -43 -104 -66 -30 -22 -59 -41 -64 -41
-4 0 -16 -7 -25 -16 -22 -23 -27 -2 -8 35 12 22 31 35 74 51 55 20 58 23 80
78 12 32 22 75 22 96 0 32 8 47 45 87 25 26 45 55 45 64 0 24 -11 16 -62 -41
-36 -41 -45 -58 -41 -78 3 -16 -6 -52 -23 -92 -27 -63 -30 -66 -90 -94 -49
-22 -64 -34 -69 -54 -3 -14 -7 -36 -10 -49 -2 -12 -13 -32 -25 -44 -11 -12
-20 -27 -20 -33 0 -5 -4 -10 -10 -10 -5 0 -10 -6 -10 -14 0 -8 -10 -16 -22
-18 -15 -2 -24 -13 -30 -36 -8 -28 -12 -32 -31 -26 -32 9 -32 12 -12 35 16 16
17 22 6 29 -8 4 -20 6 -28 3 -14 -6 -53 28 -53 45 0 12 -35 22 -48 13 -5 -3
-12 -17 -13 -31 -5 -29 -39 -41 -40 -13 0 17 -1 17 -8 -1 -5 -14 -11 -3 -24
43 -9 33 -17 68 -17 77 0 10 -6 14 -14 11 -7 -3 -19 0 -25 6 -7 7 -35 17 -64
22 -32 6 -51 15 -50 23 2 6 -6 12 -16 12 -11 0 -28 11 -39 25 -11 14 -24 25
-29 25 -8 0 -30 24 -104 113 -32 38 -47 81 -54 156 -2 24 -9 86 -15 136 -9 83
-8 99 10 150 22 65 25 120 9 162 -12 33 -17 27 -47 -62 -73 -216 -72 -485 2
-701 69 -204 147 -312 438 -606 192 -194 742 -237 1074 -84 64 30 91 52 204
166 72 72 130 136 130 142 0 5 22 32 49 59 43 43 127 170 146 221 13 34 -16
18 -30 -16 -8 -18 -21 -36 -30 -39 -8 -4 -15 -11 -15 -17 0 -21 -51 -68 -70
-63 -10 3 -27 0 -39 -6 -16 -9 -21 -9 -21 1 0 9 -3 9 -10 -2 -8 -12 -10 -9
-10 11 0 15 7 32 15 39 9 7 15 29 15 51 0 21 8 60 17 86 10 29 16 72 14 110
-1 34 2 70 7 80 5 10 15 32 24 48 11 24 12 37 4 55 -7 16 -7 25 0 27 20 7 -11
132 -36 148 -8 5 -6 13 6 26 10 12 15 29 12 49 -3 19 -1 29 6 27 16 -5 20 -68
5 -77 -9 -6 -7 -18 8 -52 29 -61 37 -106 23 -123 -8 -9 -8 -20 -2 -32 7 -13 6
-26 -4 -43 -7 -14 -13 -33 -14 -42 0 -10 -5 -18 -11 -18 -8 0 -10 -22 -7 -67
3 -49 -1 -82 -14 -120 -22 -63 -25 -112 -5 -91 22 23 67 94 67 105 0 6 8 21
18 34 36 46 99 175 129 264 42 121 48 191 29 303 -37 217 -144 418 -307 581
-138 137 -377 271 -483 271 -18 0 -41 7 -53 15 -14 10 -32 13 -49 9 -19 -5
-22 -9 -12 -15 9 -6 6 -9 -12 -9 -14 0 -32 5 -40 10 -12 8 -10 10 10 10 20 0
22 2 10 10 -8 5 -49 9 -90 8 -63 -1 -69 -2 -35 -8 l40 -7 -39 -2 c-39 -1 -94
-15 -128 -32 -23 -11 -30 11 -10 34 14 16 13 17 -14 17 -17 0 -34 -4 -39 -9z
m504 -62 c13 -8 11 -9 -9 -4 -14 4 -45 11 -70 17 -25 5 -49 14 -54 19 -12 11
112 -18 133 -32z m82 -31 c43 -18 50 -24 45 -43 -4 -14 0 -28 9 -35 18 -15 20
-43 3 -37 -7 2 -12 10 -10 17 2 7 -3 10 -12 7 -21 -8 -31 10 -16 28 19 22 5
44 -42 65 -24 10 -39 19 -35 19 5 1 31 -9 58 -21z m-91 -22 c-13 -13 -35 7
-25 24 5 8 11 8 21 -1 10 -8 12 -15 4 -23z m63 -3 c30 -16 31 -18 9 -21 -23
-4 -52 13 -52 29 0 13 7 11 43 -8z m58 -134 c17 -24 17 -28 3 -33 -9 -3 -19
-6 -24 -6 -7 0 -40 60 -40 73 0 11 35 13 39 2 2 -5 12 -22 22 -36z m150 28 c9
-7 14 -17 12 -24 -2 -7 1 -22 7 -35 9 -20 9 -21 -2 -4 -7 11 -21 28 -30 38
-30 31 -20 51 13 25z m84 -52 c17 -13 26 -24 20 -25 -5 0 -23 11 -40 25 -16
13 -25 24 -20 25 6 0 24 -11 40 -25z m-147 -16 c-11 -6 -24 -6 -34 -1 -12 7
-8 9 18 10 26 1 30 -1 16 -9z m288 -107 c-2 -2 -15 7 -29 20 -13 13 -36 34
-51 47 -14 13 -26 28 -26 34 0 6 25 -13 55 -43 30 -29 53 -55 51 -58z m-20
-463 c3 -6 2 -15 -4 -21 -6 -6 -11 -2 -15 11 -5 22 7 29 19 10z m-1213 -949
c-3 -11 -9 -17 -14 -15 -10 7 -1 35 11 35 5 0 6 -9 3 -20z m37 -70 c0 -5 -7
-10 -16 -10 -8 0 -12 5 -9 10 3 6 10 10 16 10 5 0 9 -4 9 -10z m45 -108 c-3
-3 -11 0 -18 7 -9 10 -8 11 6 5 10 -3 15 -9 12 -12z m143 -102 c69 -55 191
-70 264 -33 36 18 134 27 192 19 37 -6 46 -11 44 -24 -5 -27 -141 -52 -293
-55 -147 -2 -246 14 -314 50 -24 12 -55 23 -67 23 -14 0 -24 6 -24 14 0 16 48
9 89 -13 12 -7 34 -10 48 -6 22 5 25 3 20 -14 -5 -19 -1 -21 36 -21 l41 0 -42
39 c-61 58 -57 72 6 21z"/>
<path d="M1028 2483 c6 -2 18 -2 25 0 6 3 1 5 -13 5 -14 0 -19 -2 -12 -5z"/>
<path d="M940 2374 c0 -12 6 -15 23 -10 12 3 28 6 35 6 7 0 10 5 7 10 -11 17
-65 12 -65 -6z"/>
<path d="M1056 2361 c-14 -5 -16 -10 -7 -15 15 -9 41 -1 41 14 0 11 -7 12 -34
1z"/>
<path d="M905 2330 c-3 -5 -21 -10 -39 -10 -20 0 -40 -8 -51 -20 -10 -11 -26
-20 -36 -20 -10 0 -40 -22 -67 -49 -27 -27 -62 -56 -79 -64 -41 -22 -63 -59
-62 -104 l1 -38 11 30 c22 56 38 75 77 95 21 11 47 33 57 50 9 16 23 30 30 30
8 0 16 7 19 15 4 8 15 15 26 15 11 0 33 11 49 25 16 13 36 22 44 19 16 -6 75
16 75 28 0 12 -48 10 -55 -2z"/>
<path d="M475 2071 c-17 -10 -44 -33 -59 -52 -34 -40 -77 -129 -69 -142 8 -13
19 3 33 47 15 45 87 122 124 132 14 3 26 12 26 20 0 19 -19 17 -55 -5z"/>
<path d="M1828 1974 c-9 -8 9 -44 22 -44 14 0 12 13 -3 34 -7 9 -16 14 -19 10z"/>
<path d="M588 1923 c7 -3 16 -2 19 1 4 3 -2 6 -13 5 -11 0 -14 -3 -6 -6z"/>
<path d="M430 1869 c-7 -11 -10 -23 -7 -25 2 -2 9 7 15 21 14 30 7 33 -8 4z"/>
<path d="M325 1800 c-3 -5 1 -10 10 -10 9 0 13 5 10 10 -3 6 -8 10 -10 10 -2
0 -7 -4 -10 -10z"/>
<path d="M447 1794 c-4 -4 -7 -17 -7 -28 1 -19 1 -20 11 -3 11 19 8 43 -4 31z"/>
<path d="M2035 1750 c3 -5 8 -10 11 -10 2 0 4 5 4 10 0 6 -5 10 -11 10 -5 0
-7 -4 -4 -10z"/>
<path d="M578 1213 c7 -3 16 -2 19 1 4 3 -2 6 -13 5 -11 0 -14 -3 -6 -6z"/>
</g>
</svg>
